<svg width="1314" height="900" xmlns="http://www.w3.org/2000/svg" xmlns:xlink="http://www.w3.org/1999/xlink" xml:space="preserve" overflow="hidden"><defs><clipPath id="clip0"><rect x="1543" y="785" width="1314" height="900"/></clipPath></defs><g clip-path="url(#clip0)" transform="translate(-1543 -785)"><path d="M1792.78 1484.43 1792.78 1659.29C1792.78 1672.9 1800.88 1682.6 1818.45 1682.6L1846.25 1682.6 1846.25 1484.43M2715.84 1626.63C2715.84 1626.63 2682.03 1530.17 2675.82 1511.93 2671.63 1499.68 2665.89 1484.43 2638.37 1484.43L2575.43 1484.43 2575.43 1682.6 2596.78 1682.6C2612.88 1682.6 2623.12 1675.4 2623.12 1658.79L2623.12 1520.27 2623.97 1520.27 2685.03 1682.6 2742.21 1682.6 2803.3 1520.27 2804.17 1520.27 2804.17 1658.91C2804.17 1672.97 2811.74 1682.6 2830.6 1682.6L2857 1682.6 2857 1484.43 2798.01 1484.43C2777.11 1484.43 2764.28 1490.15 2757.92 1508.78 2753.78 1520.91 2716.76 1626.63 2716.76 1626.63L2715.84 1626.63ZM1657.12 1628.42C1657.12 1628.42 1611.1 1508.16 1608.51 1501.23 1604.99 1491.76 1600.15 1484.43 1582.7 1484.43L1543 1484.43 1624.6 1682.6 1683.95 1682.6 1768.17 1484.43 1733.32 1484.43C1718.25 1484.43 1712.49 1490.89 1708.73 1500.3L1657.95 1628.42 1657.12 1628.42ZM2241.59 1525.97 2268.75 1525.97C2288.15 1525.97 2299.72 1518.98 2299.72 1501.15L2299.72 1484.43 2222.38 1484.43C2157.57 1484.43 2126.56 1522.59 2126.56 1583.48 2126.56 1659.48 2173.84 1682.59 2222.38 1682.59L2299.72 1682.59 2299.72 1665.7C2299.72 1648.12 2287.63 1641.02 2270.08 1641.02L2241.59 1641.02C2210.71 1641.02 2182.19 1629.96 2182.19 1583.48 2182.19 1543.13 2203.81 1525.97 2241.59 1525.97M2034.1 1608.3C2034.1 1628.29 2024.81 1643.59 1998.16 1643.59L1970.3 1643.59C1950.95 1643.59 1939.33 1638.42 1939.33 1622.46 1939.33 1607.23 1950.04 1601.3 1970.3 1601.3L2034.1 1601.3 2034.1 1608.3ZM2008.1 1484.43 1898.72 1484.43 1898.72 1499.72C1898.72 1513.06 1905.84 1526.12 1924.69 1526.12 1933.1 1526.12 1994.54 1526.17 1994.54 1526.17 2023.7 1526.17 2034.1 1535.6 2034.1 1558.98L2034.1 1562.31 1960.18 1562.31C1905.36 1562.31 1885.12 1587.73 1885.12 1622.33 1885.12 1664.18 1913.17 1682.59 1960.35 1682.59L2009.51 1682.59C2073.85 1682.59 2087.59 1650.4 2087.59 1607.83L2087.59 1558.59C2087.59 1512.82 2070.61 1484.43 2008.1 1484.43M2424.58 1643.07C2459.35 1643.07 2479.78 1619.16 2479.78 1583.48 2479.78 1546 2458.17 1523.9 2424.58 1523.9 2389.18 1523.9 2369.16 1547.78 2369.16 1583.48 2369.16 1617.67 2388.56 1643.07 2424.58 1643.07M2424.58 1482C2489.64 1482 2535.8 1517.55 2535.8 1583.48 2535.8 1646.57 2492.95 1685 2424.58 1685 2357.78 1685 2313.29 1648.19 2313.29 1583.48 2313.29 1519.63 2357.28 1482 2424.58 1482" fill="#000A3B" fill-rule="evenodd"/><path d="M381.951 5.45726e-06C499.727 5.45726e-06 617.503 5.45726e-06 735.279 5.45726e-06 677.732 132.73 620.186 265.46 562.64 398.19 502.411 265.46 442.181 132.73 381.951 5.45726e-06ZM2.20799e-05 5.45726e-06C104.06 5.45726e-06 208.12 5.45726e-06 312.18 5.45726e-06 383.74 160.561 455.3 321.121 526.86 481.682 511.355 519.012 495.851 556.342 480.346 593.673 407.892 593.673 335.437 593.673 262.983 593.673 175.322 395.782 87.661 197.891 2.20799e-05 5.45726e-06Z" fill="#000A3B" fill-rule="evenodd" transform="matrix(-1 0 0 1 2567.64 785.727)"/><text fill="#000000" fill-opacity="0" font-family="Arial,Arial_MSFontService,sans-serif" font-size="593.673" x="2.20799e-05" y="519.464">V</text></g></svg>